<svg xmlns="http://www.w3.org/2000/svg" width="240" height="256" viewBox="0 0 240 256">
  <g id="Union_1" data-name="Union 1" transform="translate(14 10)" fill="#FFF">
    <path d="M 206.0001220703125 245.4997100830078 L 114.5002899169922 245.4997100830078 L 114.5002899169922 126.5000076293945 L 206.0001220703125 126.5000076293945 C 208.6328277587891 126.5000076293945 211.1865234375 127.015510559082 213.5902252197266 128.0321807861328 C 215.9121856689453 129.0142822265625 217.9976196289063 130.4203491210938 219.7886199951172 132.2113037109375 C 221.57958984375 134.0023040771484 222.9856567382813 136.0877380371094 223.9677581787109 138.4097137451172 C 224.9844207763672 140.8134155273438 225.4999237060547 143.3671112060547 225.4999237060547 145.9998016357422 L 225.4999237060547 225.9999084472656 C 225.4999237060547 228.6326141357422 224.9844207763672 231.1863098144531 223.9677581787109 233.5900115966797 C 222.9856567382813 235.9119720458984 221.57958984375 237.9974060058594 219.7886199951172 239.7884063720703 C 217.9976196289063 241.5793762207031 215.9121856689453 242.9854431152344 213.5902252197266 243.9675445556641 C 211.1865234375 244.9842071533203 208.6328277587891 245.4997100830078 206.0001220703125 245.4997100830078 Z M 97.50009155273438 245.4997100830078 L 6.000288963317871 245.4997100830078 C 3.367589235305786 245.4997100830078 0.8138558864593506 244.9842071533203 -1.589944124221802 243.9675445556641 C -3.912010908126831 242.9854431152344 -5.997544288635254 241.5793762207031 -7.788644313812256 239.7883758544922 C -9.579744338989258 237.9973754882813 -10.98591041564941 235.9119415283203 -11.96807765960693 233.5900115966797 C -12.98484420776367 231.186279296875 -13.5003776550293 228.6326141357422 -13.5003776550293 225.9999084472656 L -13.5003776550293 9.999908447265625 C -13.5003776550293 7.367208480834961 -12.98484420776367 4.813541889190674 -11.96807765960693 2.409808397293091 C -10.98591041564941 0.0878751128911972 -9.579744338989258 -1.997558236122131 -7.788644313812256 -3.7885582447052 C -5.997544288635254 -5.579558372497559 -3.912010908126831 -6.98562479019165 -1.589944124221802 -7.967724800109863 C 0.8138558864593506 -8.984391212463379 3.367589235305786 -9.49989128112793 6.000288963317871 -9.49989128112793 L 97.50009155273438 -9.49989128112793 L 97.50009155273438 245.4997100830078 Z M 201.9996185302734 107.5000076293945 L 112.4995880126953 107.5000076293945 L 112.4995880126953 -9.49989128112793 L 201.9996185302734 -9.49989128112793 C 204.63232421875 -9.49989128112793 207.1860504150391 -8.984391212463379 209.5898590087891 -7.967724800109863 C 211.9119262695313 -6.98562479019165 213.9974822998047 -5.579558372497559 215.7885589599609 -3.7885582447052 C 217.5796508789063 -1.997558236122131 218.9858551025391 0.0878751128911972 219.968017578125 2.409808397293091 C 220.9847869873047 4.813541889190674 221.5003204345703 7.367208480834961 221.5003204345703 9.999908447265625 L 221.5003204345703 88.00020599365234 C 221.5003204345703 90.63291168212891 220.9847869873047 93.18657684326172 219.968017578125 95.59030914306641 C 218.9858551025391 97.91223907470703 217.5796508789063 99.99767303466797 215.7885589599609 101.7886734008789 C 213.9974822998047 103.5796737670898 211.9119262695313 104.9857406616211 209.5898590087891 105.9678421020508 C 207.1860504150391 106.984504699707 204.63232421875 107.5000076293945 201.9996185302734 107.5000076293945 Z" stroke="none"/>
    <path d="M 206.0001220703125 244.9997100830078 C 208.5655517578125 244.9997100830078 211.0536956787109 244.4975128173828 213.3954620361328 243.5070343017578 C 215.6578216552734 242.5501403808594 217.6898193359375 241.1800689697266 219.43505859375 239.4348449707031 C 221.1802825927734 237.6896057128906 222.5503540039063 235.6576080322266 223.5072631835938 233.3952484130859 C 224.4977264404297 231.0534820556641 224.9999237060547 228.5653381347656 224.9999237060547 225.9999084472656 L 224.9999237060547 145.9998016357422 C 224.9999237060547 143.4343719482422 224.4977264404297 140.9462432861328 223.5072631835938 138.6044769287109 C 222.5503540039063 136.3421020507813 221.1802825927734 134.3101043701172 219.43505859375 132.5648803710938 C 217.6898193359375 130.8196411132813 215.6578216552734 129.4495697021484 213.3954620361328 128.49267578125 C 211.0536956787109 127.5022048950195 208.5655517578125 127.0000076293945 206.0001220703125 127.0000076293945 L 115.0002899169922 127.0000076293945 L 115.0002899169922 244.9997100830078 L 206.0001220703125 244.9997100830078 M 97.00009155273438 244.9997100830078 L 97.00009155273438 -8.99989128112793 L 6.000288963317871 -8.99989128112793 C 3.434855937957764 -8.99989128112793 0.9466558694839478 -8.49769115447998 -1.395177483558655 -7.507225036621094 C -3.657644033432007 -6.5503249168396 -5.689777374267578 -5.180224895477295 -7.435110569000244 -3.434991598129272 C -9.18044376373291 -1.68975818157196 -10.55061054229736 0.3422417938709259 -11.50757789611816 2.604608535766602 C -12.49814414978027 4.946374893188477 -13.0003776550293 7.434508323669434 -13.0003776550293 9.999908447265625 L -13.0003776550293 225.9999084472656 C -13.0003776550293 228.5653076171875 -12.49814414978027 231.0534362792969 -11.50757789611816 233.3952026367188 C -10.55061054229736 235.6575775146484 -9.18044376373291 237.6895751953125 -7.435110569000244 239.434814453125 C -5.689777374267578 241.1800384521484 -3.657644033432007 242.5501403808594 -1.395177483558655 243.5070343017578 C 0.9466558694839478 244.4975128173828 3.434855937957764 244.9997100830078 6.000288963317871 244.9997100830078 L 97.00009155273438 244.9997100830078 M 201.9996185302734 107.0000076293945 C 204.5650634765625 107.0000076293945 207.0532531738281 106.4978103637695 209.3950958251953 105.5073394775391 C 211.6575622558594 104.5504455566406 213.6896820068359 103.1803436279297 215.4350280761719 101.4351119995117 C 217.1803588867188 99.68987274169922 218.5505523681641 97.65787506103516 219.5075225830078 95.3955078125 C 220.4980621337891 93.05374145507813 221.0003204345703 90.56560516357422 221.0003204345703 88.00020599365234 L 221.0003204345703 9.999908447265625 C 221.0003204345703 7.434508323669434 220.4980621337891 4.946374893188477 219.5075225830078 2.604608535766602 C 218.5505523681641 0.3422417938709259 217.1803588867188 -1.68975818157196 215.4350280761719 -3.434991598129272 C 213.6896820068359 -5.180224895477295 211.6575622558594 -6.5503249168396 209.3950958251953 -7.507225036621094 C 207.0532531738281 -8.49769115447998 204.5650634765625 -8.99989128112793 201.9996185302734 -8.99989128112793 L 112.9995880126953 -8.99989128112793 L 112.9995880126953 107.0000076293945 L 201.9996185302734 107.0000076293945 M 206.0001220703125 245.9997100830078 L 114.0002899169922 245.9997100830078 L 114.0002899169922 126.0000076293945 L 206.0001220703125 126.0000076293945 C 217.0458221435547 126.0000076293945 225.9999237060547 134.9541015625 225.9999237060547 145.9998016357422 L 225.9999237060547 225.9999084472656 C 225.9999237060547 237.0456085205078 217.0458221435547 245.9997100830078 206.0001220703125 245.9997100830078 Z M 98.00009155273438 245.9997100830078 L 6.000288963317871 245.9997100830078 C -5.045410633087158 245.9997100830078 -14.0003776550293 237.0456085205078 -14.0003776550293 225.9999084472656 L -14.0003776550293 9.999908447265625 C -14.0003776550293 -1.045791506767273 -5.045410633087158 -9.99989128112793 6.000288963317871 -9.99989128112793 L 98.00009155273438 -9.99989128112793 L 98.00009155273438 245.9997100830078 Z M 201.9996185302734 108.0000076293945 L 111.9995880126953 108.0000076293945 L 111.9995880126953 -9.99989128112793 L 201.9996185302734 -9.99989128112793 C 213.0453186035156 -9.99989128112793 222.0003204345703 -1.045791506767273 222.0003204345703 9.999908447265625 L 222.0003204345703 88.00020599365234 C 222.0003204345703 99.04590606689453 213.0453186035156 108.0000076293945 201.9996185302734 108.0000076293945 Z" stroke="none"/>
  </g>
</svg>
